<?xml version="1.0" encoding="utf-8"?>
<!-- Generator: Adobe Illustrator 24.0.1, SVG Export Plug-In . SVG Version: 6.00 Build 0)  -->
<svg version="1.1" id="Layer_1" focusable="false" xmlns="http://www.w3.org/2000/svg" xmlns:xlink="http://www.w3.org/1999/xlink"
	 x="0px" y="0px" viewBox="0 0 512 512" style="enable-background:new 0 0 512 512;" xml:space="preserve">
<style type="text/css">
	.st0{fill:#FFFFFF;}
</style>
<path class="st0" d="M507.3,84.7L464,41.4c-6-6-14.1-9.4-22.6-9.4H288V16c0-8.8-7.2-16-16-16h-32c-8.8,0-16,7.2-16,16v16H56
	c-13.3,0-24,10.8-24,24v80c0,13.3,10.8,24,24,24h385.4c8.5,0,16.6-3.4,22.6-9.4l43.3-43.3C513.6,101.1,513.6,90.9,507.3,84.7z
	 M224,496c0,8.8,7.2,16,16,16h32c8.8,0,16-7.2,16-16V384h-64V496z M456,224H288v-32h-64v32H70.6c-8.5,0-16.6,3.4-22.6,9.4L4.7,276.7
	c-6.3,6.3-6.3,16.4,0,22.6L48,342.6c6,6,14.1,9.4,22.6,9.4H456c13.3,0,24-10.8,24-24v-80C480,234.8,469.3,224,456,224z"/>
</svg>
